<?xml version="1.0" encoding="UTF-8" standalone="no"?><!-- Generator: Gravit.io --><svg xmlns="http://www.w3.org/2000/svg" xmlns:xlink="http://www.w3.org/1999/xlink" style="isolation:isolate" viewBox="0 0 500 500" width="500pt" height="500pt"><defs><clipPath id="_clipPath_0nZJgOR3xWRIG4QqGBnNsZiifaZMN5fk"><rect width="500" height="500"/></clipPath></defs><g clip-path="url(#_clipPath_0nZJgOR3xWRIG4QqGBnNsZiifaZMN5fk)"><ellipse vector-effect="non-scaling-stroke" cx="306.00000000000006" cy="250.00000000000006" rx="306" ry="250" fill="rgb(244,248,255)"/><g><path d=" M 437.268 349.409 C 424.215 349.294 411.182 348.338 398.251 346.546 C 397.797 346.484 397.343 346.415 396.889 346.352 L 397.572 224.105 C 398.023 223.746 398.48 223.393 398.941 223.05 C 400.47 221.909 402.042 220.839 403.668 219.857 C 411.502 215.138 420.674 212.977 427.003 215.142 L 427.101 215.181 C 428.487 215.648 429.766 216.385 430.867 217.348 C 436.424 222.285 435.497 232.267 431.012 241.325 C 439.905 233.201 451.127 226.731 461.144 226.24 C 470.915 225.758 477.895 230.867 483.826 236.408 C 484.022 236.59 484.213 236.771 484.404 236.953 C 484.502 237.042 484.594 237.135 484.692 237.223 C 489.213 241.546 493.669 246.587 493.13 253.882 C 492.537 261.884 485.835 270.755 478.026 276.975 C 470.222 283.195 461.356 287.328 452.704 291.518 C 444.057 295.713 435.189 300.251 427.798 306.983 C 439.33 297.865 452.452 290.514 465.214 287.799 C 477.975 285.083 490.232 287.473 496.242 295.599 C 498.01 298.066 499.162 300.921 499.601 303.924 C 499.659 304.275 499.707 304.631 499.748 304.992 C 500.604 312.515 498.003 321.496 491.784 329.138 C 484.937 337.553 474.786 343.388 465.149 346.291 C 455.513 349.193 446.236 349.503 437.268 349.409 Z " fill="rgb(144,204,144)"/><path d=" M 397.319 269.428 L 397.332 267.09 Q 398.028 265.977 398.708 264.853 C 399.001 264.389 399.283 263.92 399.57 263.45 Q 406.673 251.819 413.197 240.043 Q 419.726 228.278 425.654 216.394 C 425.843 215.961 426.314 215.724 426.774 215.831 C 426.803 215.839 426.831 215.852 426.856 215.87 C 427.064 215.98 427.15 216.227 426.973 216.588 C 426.485 217.559 425.998 218.537 425.5 219.508 Q 419.471 231.425 412.84 243.239 Q 406.212 255.045 398.999 266.716 C 398.899 266.879 398.794 267.043 398.695 267.207 C 398.236 267.949 397.778 268.686 397.319 269.428 Z " fill="rgb(255,255,255)"/><path d=" M 397.151 299.568 L 397.159 298.123 C 397.615 297.797 398.071 297.476 398.527 297.15 Q 414.64 285.66 430.752 274.175 Q 457.13 255.367 483.508 236.571 C 483.603 236.496 483.711 236.441 483.826 236.408 C 484.216 236.301 484.444 236.587 484.404 236.953 C 484.359 237.266 484.182 237.544 483.918 237.717 Q 469.125 248.262 454.343 258.801 Q 428.097 277.511 401.856 296.216 C 400.746 297.009 399.63 297.802 398.519 298.596 C 398.063 298.922 397.607 299.248 397.151 299.568 Z " fill="rgb(255,255,255)"/><path d=" M 405.545 331.771 C 403.109 331.697 400.712 331.536 398.336 331.326 Q 397.655 331.264 396.974 331.203 L 396.982 329.686 C 397.436 329.733 397.891 329.779 398.345 329.82 C 401.776 330.14 405.246 330.368 408.81 330.399 C 418.692 330.439 428.552 329.476 438.239 327.524 C 448.67 325.45 458.9 322.471 468.814 318.623 C 479.27 314.583 489.385 309.712 499.064 304.058 C 499.221 303.951 499.412 303.904 499.601 303.924 C 500.033 303.986 500.161 304.562 499.748 304.992 C 499.667 305.077 499.575 305.15 499.473 305.21 Q 497.669 306.259 495.854 307.27 C 486.122 312.716 475.971 317.378 465.498 321.21 C 455.551 324.861 445.306 327.638 434.877 329.509 C 425.203 331.262 415.374 332.02 405.545 331.771 L 405.545 331.771 Z " fill="rgb(255,255,255)"/><path d=" M 393.502 117.87 L 61.16 117.87 C 58.524 117.872 56.388 120.009 56.385 122.644 L 56.385 347.849 C 56.388 350.485 58.524 352.621 61.16 352.623 L 393.502 352.623 C 394.899 352.623 396.226 352.011 397.132 350.948 C 397.17 350.907 397.205 350.863 397.236 350.816 C 397.521 350.468 397.752 350.079 397.921 349.661 C 398.161 349.087 398.284 348.471 398.282 347.849 L 398.282 122.644 C 398.279 120.007 396.14 117.87 393.502 117.87 L 393.502 117.87 Z  M 396.919 347.849 C 396.919 348.515 396.723 349.166 396.355 349.721 C 396.027 350.21 395.583 350.609 395.063 350.882 C 394.58 351.131 394.045 351.261 393.502 351.26 L 61.16 351.26 C 59.277 351.258 57.751 349.732 57.749 347.849 L 57.749 122.644 C 57.751 120.761 59.277 119.236 61.16 119.233 L 393.502 119.233 C 395.387 119.233 396.916 120.759 396.919 122.644 L 396.919 347.849 Z " fill="rgb(63,61,86)"/><rect x="57.066" y="137.005" width="340.532" height="1.365" transform="matrix(1,0,0,1,0,0)" fill="rgb(63,61,86)"/><circle vector-effect="non-scaling-stroke" cx="68.66698474046262" cy="128.10640844141898" r="4.09457127174079" fill="rgb(63,61,86)"/><circle vector-effect="non-scaling-stroke" cx="80.43887440913356" cy="128.10640844141898" r="4.09457127174079" fill="rgb(63,61,86)"/><circle vector-effect="non-scaling-stroke" cx="92.2107640778045" cy="128.10640844141898" r="4.09457127174079" fill="rgb(63,61,86)"/><path d=" M 312.798 168.598 L 141.973 168.598 C 138.042 168.598 134.855 165.412 134.855 161.481 C 134.855 157.55 138.042 154.363 141.973 154.363 L 312.798 154.363 C 316.729 154.363 319.916 157.55 319.916 161.481 C 319.916 165.412 316.729 168.598 312.798 168.598 Z  M 141.973 155.458 C 138.647 155.458 135.95 158.155 135.95 161.481 C 135.95 164.807 138.647 167.503 141.973 167.503 L 312.798 167.503 C 316.124 167.503 318.821 164.807 318.821 161.481 C 318.821 158.155 316.124 155.458 312.798 155.458 L 141.973 155.458 Z " fill="rgb(63,61,86)"/><path d=" M 143.4 212.126 L 128.069 212.126 C 125.65 212.126 123.689 210.165 123.689 207.746 C 123.689 205.327 125.65 203.366 128.069 203.366 L 143.4 203.366 C 145.819 203.366 147.78 205.327 147.78 207.746 C 147.78 210.165 145.819 212.126 143.4 212.126 Z " fill="rgb(204,204,204)"/><path d=" M 161.468 226.909 L 128.069 226.909 C 125.65 226.909 123.689 224.948 123.689 222.529 C 123.689 220.11 125.65 218.149 128.069 218.149 L 161.468 218.149 C 163.887 218.149 165.848 220.11 165.848 222.529 C 165.848 224.948 163.887 226.909 161.468 226.909 Z " fill="rgb(204,204,204)"/><path d=" M 146.137 276.733 L 130.807 276.733 C 128.388 276.733 126.427 274.772 126.427 272.353 C 126.427 269.934 128.388 267.973 130.807 267.973 L 146.137 267.973 C 148.556 267.973 150.518 269.934 150.518 272.353 C 150.518 274.772 148.556 276.733 146.137 276.733 Z " fill="rgb(204,204,204)"/><path d=" M 164.205 291.516 L 130.807 291.516 C 128.388 291.516 126.427 289.555 126.427 287.136 C 126.427 284.717 128.388 282.756 130.807 282.756 L 164.205 282.756 C 166.625 282.756 168.586 284.717 168.586 287.136 C 168.586 289.555 166.625 291.516 164.205 291.516 Z " fill="rgb(204,204,204)"/><path d=" M 246.88 275.091 L 231.55 275.091 C 229.131 275.091 227.17 273.129 227.17 270.71 C 227.17 268.291 229.131 266.33 231.55 266.33 L 246.88 266.33 C 249.3 266.33 251.261 268.291 251.261 270.71 C 251.261 273.129 249.3 275.091 246.88 275.091 Z " fill="rgb(204,204,204)"/><path d=" M 264.949 289.873 L 231.55 289.873 C 229.131 289.873 227.17 287.912 227.17 285.493 C 227.17 283.074 229.131 281.113 231.55 281.113 L 264.949 281.113 C 267.368 281.113 269.329 283.074 269.329 285.493 C 269.329 287.912 267.368 289.873 264.949 289.873 Z " fill="rgb(204,204,204)"/><path d=" M 245.238 214.864 L 229.907 214.864 C 227.488 214.864 225.527 212.903 225.527 210.484 C 225.527 208.064 227.488 206.103 229.907 206.103 L 245.238 206.103 C 247.657 206.103 249.618 208.064 249.618 210.484 C 249.618 212.903 247.657 214.864 245.238 214.864 Z " fill="rgb(204,204,204)"/><path d=" M 263.306 229.647 L 229.907 229.647 C 227.488 229.647 225.527 227.686 225.527 225.266 C 225.527 222.847 227.488 220.886 229.907 220.886 L 263.306 220.886 C 265.725 220.886 267.686 222.847 267.686 225.266 C 267.686 227.686 265.725 229.647 263.306 229.647 Z " fill="rgb(204,204,204)"/><path d=" M 347.624 211.579 L 332.293 211.579 C 329.874 211.579 327.913 209.618 327.913 207.198 C 327.913 204.779 329.874 202.818 332.293 202.818 L 347.624 202.818 C 350.043 202.818 352.004 204.779 352.004 207.198 C 352.004 209.618 350.043 211.579 347.624 211.579 Z " fill="rgb(204,204,204)"/><path d=" M 365.692 226.362 L 332.293 226.362 C 329.874 226.362 327.913 224.4 327.913 221.981 C 327.913 219.562 329.874 217.601 332.293 217.601 L 365.692 217.601 C 368.111 217.601 370.072 219.562 370.072 221.981 C 370.072 224.4 368.111 226.362 365.692 226.362 Z " fill="rgb(204,204,204)"/><circle vector-effect="non-scaling-stroke" cx="101.02109724153124" cy="215.13740111972322" r="16.425502932727085" fill="rgb(108,99,255)"/><path d=" M 108.686 222.529 L 93.356 222.529 C 92.449 222.528 91.714 221.793 91.713 220.886 L 91.713 209.389 C 91.714 208.482 92.449 207.747 93.356 207.746 L 97.672 207.746 C 98.243 207.744 98.773 208.04 99.071 208.527 L 100.274 210.484 L 108.686 210.484 C 109.593 210.485 110.328 211.219 110.329 212.126 L 110.329 220.886 C 110.328 221.793 109.593 222.528 108.686 222.529 L 108.686 222.529 Z  M 93.356 208.841 C 93.054 208.841 92.809 209.086 92.808 209.389 L 92.808 220.886 C 92.809 221.189 93.054 221.434 93.356 221.434 L 108.686 221.434 C 108.989 221.434 109.234 221.189 109.234 220.886 L 109.234 212.126 C 109.234 211.824 108.989 211.579 108.686 211.579 L 99.663 211.579 L 98.138 209.101 C 98.039 208.939 97.862 208.84 97.672 208.841 L 93.356 208.841 Z " fill="rgb(255,255,255)"/><circle vector-effect="non-scaling-stroke" cx="201.76418189559072" cy="217.87498494184442" r="16.425502932727085" fill="rgb(108,99,255)"/><path d=" M 208.882 228.278 L 194.647 228.278 C 193.74 228.277 193.005 227.542 193.004 226.635 L 193.004 209.115 C 193.005 208.208 193.74 207.473 194.647 207.472 L 204.961 207.472 C 205.336 207.473 205.699 207.6 205.99 207.835 L 209.911 210.985 C 210.3 211.296 210.526 211.767 210.525 212.265 L 210.525 226.635 C 210.524 227.542 209.789 228.277 208.882 228.278 L 208.882 228.278 Z  M 194.647 208.567 C 194.344 208.568 194.099 208.813 194.099 209.115 L 194.099 226.635 C 194.099 226.938 194.344 227.182 194.647 227.183 L 208.882 227.183 C 209.184 227.182 209.429 226.938 209.429 226.635 L 209.429 212.265 C 209.43 212.099 209.355 211.942 209.225 211.839 L 205.304 208.688 C 205.207 208.61 205.086 208.567 204.961 208.567 L 194.647 208.567 Z " fill="rgb(255,255,255)"/><path d=" M 206.144 215.138 L 197.384 215.138 C 197.082 215.138 196.837 214.892 196.837 214.59 C 196.837 214.288 197.082 214.042 197.384 214.042 L 206.144 214.042 C 206.447 214.042 206.692 214.288 206.692 214.59 C 206.692 214.892 206.447 215.138 206.144 215.138 Z " fill="rgb(255,255,255)"/><path d=" M 206.144 218.423 L 197.384 218.423 C 197.082 218.423 196.837 218.177 196.837 217.875 C 196.837 217.573 197.082 217.328 197.384 217.328 L 206.144 217.328 C 206.447 217.328 206.692 217.573 206.692 217.875 C 206.692 218.177 206.447 218.423 206.144 218.423 Z " fill="rgb(255,255,255)"/><path d=" M 206.144 221.708 L 197.384 221.708 C 197.082 221.708 196.837 221.463 196.837 221.16 C 196.837 220.858 197.082 220.613 197.384 220.613 L 206.144 220.613 C 206.447 220.613 206.692 220.858 206.692 221.16 C 206.692 221.463 206.447 221.708 206.144 221.708 Z " fill="rgb(255,255,255)"/><circle vector-effect="non-scaling-stroke" cx="303.0547833140745" cy="214.58988435529898" r="16.425502932727113" fill="rgb(108,99,255)"/><path d=" M 310.72 220.613 L 295.389 220.613 C 294.483 220.612 293.748 219.877 293.747 218.97 L 293.747 210.21 C 293.748 209.303 294.483 208.568 295.389 208.567 L 310.72 208.567 C 311.627 208.568 312.361 209.303 312.362 210.21 L 312.362 218.97 C 312.361 219.877 311.627 220.612 310.72 220.613 L 310.72 220.613 Z  M 295.389 209.662 C 295.087 209.663 294.842 209.908 294.842 210.21 L 294.842 218.97 C 294.842 219.272 295.087 219.517 295.389 219.518 L 310.72 219.518 C 311.022 219.517 311.267 219.272 311.267 218.97 L 311.267 210.21 C 311.267 209.908 311.022 209.663 310.72 209.662 L 295.389 209.662 Z " fill="rgb(255,255,255)"/><path d=" M 303.055 216.034 C 302.747 216.035 302.445 215.949 302.184 215.787 L 294.004 210.674 C 293.748 210.514 293.671 210.176 293.831 209.92 C 293.991 209.664 294.328 209.586 294.585 209.745 L 302.765 214.858 C 302.942 214.968 303.167 214.968 303.345 214.858 L 311.525 209.745 C 311.781 209.586 312.118 209.664 312.278 209.92 C 312.438 210.176 312.361 210.514 312.105 210.674 L 303.926 215.787 C 303.664 215.949 303.362 216.035 303.055 216.034 Z " fill="rgb(255,255,255)"/><circle vector-effect="non-scaling-stroke" cx="101.02109724153124" cy="279.74437932178313" r="16.425502932727085" fill="rgb(108,99,255)"/><path d=" M 108.686 285.767 L 93.356 285.767 C 92.449 285.766 91.714 285.031 91.713 284.125 L 91.713 275.364 C 91.714 274.458 92.449 273.723 93.356 273.722 L 108.686 273.722 C 109.593 273.723 110.328 274.458 110.329 275.364 L 110.329 284.125 C 110.328 285.031 109.593 285.766 108.686 285.767 L 108.686 285.767 Z  M 93.356 274.817 C 93.054 274.817 92.809 275.062 92.808 275.364 L 92.808 284.125 C 92.809 284.427 93.054 284.672 93.356 284.672 L 108.686 284.672 C 108.989 284.672 109.234 284.427 109.234 284.125 L 109.234 275.364 C 109.234 275.062 108.989 274.817 108.686 274.817 L 93.356 274.817 Z " fill="rgb(255,255,255)"/><path d=" M 106.257 285.767 L 95.238 285.767 C 94.847 285.767 94.485 285.559 94.29 285.22 C 94.094 284.881 94.094 284.463 94.29 284.125 L 97.609 278.376 C 97.804 278.037 98.166 277.828 98.557 277.828 C 98.948 277.828 99.31 278.037 99.506 278.376 L 101.649 282.089 L 102.891 279.938 C 103.087 279.599 103.448 279.39 103.839 279.39 C 104.231 279.39 104.592 279.599 104.788 279.938 L 107.205 284.125 C 107.401 284.463 107.401 284.881 107.205 285.22 C 107.009 285.559 106.648 285.767 106.256 285.767 L 106.257 285.767 Z  M 106.257 284.672 L 106.257 284.672 L 103.839 280.485 L 102.123 283.457 C 102.026 283.627 101.845 283.731 101.649 283.731 L 101.649 283.731 C 101.454 283.731 101.273 283.627 101.175 283.457 L 98.557 278.923 L 95.238 284.672 L 106.257 284.672 Z " fill="rgb(255,255,255)"/><circle vector-effect="non-scaling-stroke" cx="107.04378165019784" cy="277.00679549966196" r="1.0950335288484752" fill="rgb(255,255,255)"/><circle vector-effect="non-scaling-stroke" cx="202.8592154244392" cy="278.1018290285104" r="16.425502932727085" fill="rgb(108,99,255)"/><path d=" M 202.859 278.376 C 200.138 278.376 197.932 276.17 197.932 273.448 C 197.932 270.727 200.138 268.52 202.859 268.52 C 205.581 268.52 207.787 270.727 207.787 273.448 C 207.784 276.168 205.579 278.373 202.859 278.376 L 202.859 278.376 Z  M 202.859 269.615 C 200.743 269.615 199.027 271.331 199.027 273.448 C 199.027 275.565 200.743 277.281 202.859 277.281 C 204.976 277.281 206.692 275.565 206.692 273.448 C 206.689 271.332 204.975 269.618 202.859 269.615 L 202.859 269.615 Z " fill="rgb(255,255,255)"/><path d=" M 207.239 287.683 L 198.479 287.683 C 197.421 287.682 196.564 286.825 196.563 285.767 C 196.563 282.29 199.382 279.471 202.859 279.471 C 206.337 279.471 209.156 282.29 209.156 285.767 C 209.154 286.825 208.297 287.682 207.239 287.683 L 207.239 287.683 Z  M 202.859 280.566 C 199.988 280.569 197.661 282.896 197.658 285.767 C 197.658 286.221 198.026 286.588 198.479 286.588 L 207.239 286.588 C 207.693 286.588 208.06 286.221 208.061 285.767 C 208.057 282.896 205.731 280.569 202.859 280.566 L 202.859 280.566 Z " fill="rgb(255,255,255)"/><path d=" M 44.314 375.859 L 51.027 375.859 L 54.22 349.968 L 44.313 349.968 L 44.314 375.859 L 44.314 375.859 Z " fill="rgb(255,184,184)"/><path d=" M 63.972 382.091 L 42.876 382.092 L 42.876 373.941 L 55.821 373.941 C 60.323 373.94 63.972 377.59 63.972 382.091 L 63.972 382.091 L 63.972 382.091 Z " fill="rgb(47,46,65)"/><path d=" M 19.129 375.859 L 25.841 375.859 L 29.034 349.968 L 19.127 349.968 L 19.129 375.859 L 19.129 375.859 Z " fill="rgb(255,184,184)"/><path d=" M 38.787 382.091 L 17.69 382.092 L 17.69 373.941 L 30.635 373.941 C 35.137 373.94 38.786 377.59 38.787 382.091 L 38.787 382.091 L 38.787 382.091 Z " fill="rgb(47,46,65)"/><path d=" M 19.948 298.748 C 21.412 297.806 22.384 296.264 22.602 294.537 C 22.82 292.81 22.262 291.075 21.077 289.799 L 25.497 227.077 L 12.766 228.312 L 12.416 289.736 C 10.36 291.915 10.258 295.288 12.18 297.587 C 14.101 299.886 17.439 300.385 19.948 298.748 L 19.948 298.748 Z " fill="rgb(255,184,184)"/><path d=" M 44.514 362.819 C 43.268 362.815 42.22 361.884 42.068 360.647 L 38.166 328.014 C 38.052 327.064 37.255 326.343 36.299 326.325 C 35.342 326.308 34.519 326.999 34.37 327.944 L 29.455 359.189 C 29.271 360.39 28.236 361.275 27.021 361.27 L 19.055 361.27 C 18.398 361.27 17.769 361.008 17.306 360.542 C 16.843 360.076 16.586 359.445 16.591 358.788 L 20.393 289.508 C 20.396 288.289 21.295 287.257 22.503 287.088 L 52.065 282.797 C 52.776 282.694 53.497 282.906 54.038 283.378 C 54.579 283.85 54.888 284.535 54.883 285.253 L 54.367 360.02 C 54.358 361.328 53.328 362.401 52.021 362.463 L 44.631 362.816 Q 44.573 362.819 44.514 362.819 Z " fill="rgb(47,46,65)"/><path d=" M 29.188 292.126 C 26.344 292.115 23.524 291.612 20.852 290.641 C 19.925 290.3 19.295 289.435 19.254 288.449 C 18.999 282.789 17.507 253.657 13.163 235.887 C 11.437 228.76 14.166 221.293 20.082 216.958 Q 20.432 216.706 20.796 216.463 C 25.905 213.063 32.41 212.553 37.986 215.116 C 43.746 217.693 47.759 223.072 48.588 229.328 L 55.671 281.917 C 55.763 282.582 55.579 283.255 55.161 283.78 C 54.753 284.301 54.149 284.632 53.49 284.696 C 51.035 284.94 45.945 285.892 39.429 289.511 C 36.296 291.247 32.77 292.147 29.188 292.126 L 29.188 292.126 Z " fill="rgb(63,61,86)"/><path d=" M 20.528 248.533 L 8.871 245.372 C 7.559 245.015 6.783 243.663 7.138 242.35 L 11.236 227.236 C 12.145 223.882 15.439 221.757 18.869 222.31 C 22.298 222.863 24.757 225.917 24.566 229.386 L 23.633 246.291 C 23.592 247.033 23.218 247.717 22.615 248.153 C 22.013 248.588 21.246 248.728 20.528 248.533 L 20.528 248.533 Z " fill="rgb(63,61,86)"/><circle vector-effect="non-scaling-stroke" cx="33.50438499627989" cy="194.52781339943965" r="13.447575676526602" fill="rgb(255,184,184)"/><path d=" M 82.235 220.948 C 82.168 221.243 82.124 221.544 82.104 221.846 L 58.584 235.415 L 52.868 232.124 L 46.773 240.102 L 59.003 248.819 L 85.836 227.65 C 88.076 228.48 90.597 227.836 92.165 226.033 C 93.733 224.231 94.023 221.646 92.893 219.541 C 91.762 217.437 89.447 216.251 87.078 216.564 C 84.709 216.876 82.781 218.622 82.235 220.948 L 82.235 220.948 Z " fill="rgb(255,184,184)"/><path d=" M 56.635 236.069 L 46.504 242.644 C 45.362 243.383 43.837 243.059 43.096 241.919 L 34.571 228.783 C 32.68 225.868 33.294 221.996 35.994 219.81 C 38.694 217.625 42.609 217.83 45.066 220.287 L 57.036 232.261 C 57.562 232.786 57.822 233.521 57.744 234.261 C 57.667 235 57.259 235.665 56.635 236.069 Z " fill="rgb(63,61,86)"/><path d=" M 23.988 205.167 C 26.497 207.839 31.156 206.405 31.483 202.754 C 31.508 202.47 31.507 202.185 31.477 201.902 C 31.308 200.285 30.374 198.817 30.598 197.109 C 30.649 196.684 30.807 196.279 31.058 195.933 C 33.057 193.256 37.75 197.13 39.637 194.707 C 40.794 193.221 39.434 190.881 40.321 189.22 C 41.493 187.028 44.964 188.11 47.14 186.909 C 49.562 185.574 49.417 181.858 47.823 179.598 C 45.879 176.842 42.47 175.372 39.104 175.16 C 35.739 174.948 32.396 175.858 29.253 177.082 C 25.683 178.474 22.142 180.397 19.945 183.536 C 17.273 187.354 17.016 192.487 18.352 196.951 C 19.165 199.667 21.94 202.985 23.988 205.167 Z " fill="rgb(47,46,65)"/><path d=" M 77.2 382.13 L 0.548 382.13 C 0.245 382.13 0 381.885 0 381.583 C 0 381.28 0.245 381.035 0.548 381.035 L 77.2 381.035 C 77.502 381.035 77.747 381.28 77.747 381.583 C 77.747 381.885 77.502 382.13 77.2 382.13 Z " fill="rgb(63,61,86)"/></g></g></svg>